# xmcd
#
# Track frame offsets:
# 150
# 16799
# 49966
# 67099
# 96427
# 107273
# 131560
# 149746
# 172132
# 190660
# 199391
# 212922
# 226150
# 246012
# 264961
#
# Disc length: 3658 seconds
#
#
# Revision: 8
# Processed by: cddbd v1.5.1PL0 Copyright (c) Steve Scherf et al.
# Submitted via: FreeRIP 2.942 
#
DISCID=de0e480f
DTITLE=Various Artist - WoW Worship [CD1]
DYEAR=1999
DGENRE=Contemporary Christian
TTITLE0=Andy Park - The River Is Here
TTITLE1=Jamie Harvill And Gary Sadler - Ancient Of Days
TTITLE2=Holland Davis - Let It Rise
TTITLE3=Darrell Evans - Let The River Flow
TTITLE4=Eddie Espinosa - Change My Heart, Oh God
TTITLE5=Matt Redman - The Heart Of Worship
TTITLE6=Darlene Zschech - Shout To The Lord
TTITLE7=Paul Baloche - Open The Eyes Of My Heart
TTITLE8=Brian Doerksen - Refiner's Fire
TTITLE9=Don Moen - Blessed Be The Name Of The Lord
TTITLE10=Laurie Klein - I Love You, Lord
TTITLE11=Terrye Coelhp Strom - Father, I Adore You
TTITLE12=Diane Ball - In His Time
TTITLE13=Henry Smith - Give Thanks
TTITLE14=Lynn Baird - Come Into His Presence
EXTD=
EXTT0=
EXTT1=
EXTT2=
EXTT3=
EXTT4=
EXTT5=
EXTT6=
EXTT7=
EXTT8=
EXTT9=
EXTT10=
EXTT11=
EXTT12=
EXTT13=
EXTT14=
PLAYORDER=
